<svg width="32" height="32" viewBox="0 0 32 32" fill="none" xmlns="http://www.w3.org/2000/svg">
  <rect width="32" height="32" rx="6" fill="#2563eb"/>
  <svg x="4" y="4" width="24" height="24" viewBox="0 0 24 24" fill="none" stroke="white" stroke-width="2" stroke-linecap="round" stroke-linejoin="round">
    <path d="M7 17m-2 0a2 2 0 1 0 4 0a2 2 0 1 0 -4 0"/>
    <path d="M17 17m-2 0a2 2 0 1 0 4 0a2 2 0 1 0 -4 0"/>
    <path d="M5 17h-2v-6l2-5h9l4 5h1a2 2 0 0 1 2 2v4h-2"/>
    <path d="M16 5l1.5 7h4.5"/>
    <path d="M2 10h15"/>
    <path d="M6 6h9"/>
  </svg>
</svg>